# xmcd CD database file
#
# Track frame offsets:
#	150
#	13699
#	31081
#	45787
#	59322
#	73860
#	90344
#	106518
#	120493
#	133502
#	148966
#	162735
#	177963
#
# Disc length: 2566 seconds
#
# Revision: 0
# Processed by: cddbd v1.5.2PL0 Copyright (c) Steve Scherf et al.
# Submitted via: CDex 1.51
#
DISCID=a50a040d
DTITLE=Lane Cardoso - Elementos
DYEAR=2005
DGENRE=MPB
TTITLE0=Apenas A Fumaça
TTITLE1=Ladeira Do Sol
TTITLE2=Vem
TTITLE3=Treinzinho
TTITLE4=Acordo Doido É Massa
TTITLE5=Areia E Mar
TTITLE6=Ah Como Eu Amei
TTITLE7=Pra Incendiar Seu Coração
TTITLE8=Regue Maravilha
TTITLE9=Big Boom
TTITLE10=A Festa Vai Começar
TTITLE11=Pode Correr
TTITLE12=Bem-Que-Vi
EXTD=YEAR: 2005
EXTT0=
EXTT1=
EXTT2=
EXTT3=
EXTT4=
EXTT5=
EXTT6=
EXTT7=
EXTT8=
EXTT9=
EXTT10=
EXTT11=
EXTT12=
PLAYORDER=
